# xmcd CD database file
#
# Track frame offsets:
#	150
#	14306
#	28164
#	45292
#	63729
#	76323
#	93057
#	106727
#	118532
#	131475
#	146869
#	162196
#	177592
#	194218
#	207888
#	221713
#
# Disc length: 3125 seconds
#
# Revision: 0
# Processed by: cddbd v1.5.2PL0 Copyright (c) Steve Scherf et al.
# Submitted via: CDex 1.50
#
DISCID=e40c3310
DTITLE=Various Artist - 016 - Tom Astor - Alles klar , kein Problem 
DYEAR=1998
DGENRE=Country
TTITLE0=Wilde Gefühle
TTITLE1=Ich geh gern vergessene Straßen
TTITLE2=Hinterm Horizont
TTITLE3=Tu einfach was ich will
TTITLE4=Hab ich heute schon gelebt
TTITLE5=No Smoking
TTITLE6=Wenn es kein Morgen gibt
TTITLE7=Und dann packt mich der Blues
TTITLE8=Wir werden nicht älter, wir werden nur noch besser
TTITLE9=Ich glaub' immer an ein Wunder 
TTITLE10=Ihr Kleid ( Hilton Blues )
TTITLE11=Ja , dann bricht das Chaos aus , Halleluja
TTITLE12=Ich brauch' ne Insel
TTITLE13=Lach mal laut über dich
TTITLE14=Alles klar , kein Problem
TTITLE15=To Daddy
EXTD=YEAR: 1998
EXTT0=
EXTT1=
EXTT2=
EXTT3=
EXTT4=
EXTT5=
EXTT6=
EXTT7=
EXTT8=
EXTT9=
EXTT10=
EXTT11=
EXTT12=
EXTT13=
EXTT14=
EXTT15=
PLAYORDER=
